<svg id="Capa_1" enable-background="new 0 0 512 512" height="512" viewBox="0 0 512 512" width="512" xmlns="http://www.w3.org/2000/svg"><g><g><path d="m475.123 466.12-48.6-240c-2.8-14.03-15.11-24.12-29.41-24.12h-70.82c-14.3 0-26.61 10.09-29.41 24.12l.23 275.88h148.59c18.93 0 33.13-17.32 29.42-35.88z" fill="#91def5"/><path d="m331.703 142h60v60h-60z" fill="#eefaff"/><path d="m121.703 10h120v72h-120z" fill="#eefaff"/><path d="m326.813 467.76c-23.516-164.579-27.917-195.408-51.43-360-2.1-14.745-14.731-25.76-29.7-25.76-18.21 0-73.986 0-127.96 0-14.93 0-27.59 10.98-29.7 25.76-.027.191-48.228 337.589-51.43 360-2.58 18.07 11.44 34.24 29.7 34.24h230.82c18.218 0 32.281-16.124 29.7-34.24z" fill="#ffa2c3"/></g><g><path d="m68.504 173.676c-.001.008-.001.016-.003.024-.002.015-.005.03-.008.046l-41.8 292.601c-3.441 24.1 15.282 45.653 39.6 45.653h379.41c25.247 0 44.173-23.091 39.221-47.865l-14.189-70.073c-1.097-5.413-6.373-8.908-11.786-7.816-5.413 1.096-8.912 6.373-7.816 11.786l14.185 70.048c2.476 12.386-7.007 23.92-19.614 23.92h-113.879c4.304-7.492 6.202-16.429 4.888-25.654l-32.367-226.564 2.345-11.705c1.859-9.316 10.103-16.077 19.603-16.077h70.82c9.5 0 17.744 6.761 19.608 16.105l16.546 81.71c.961 4.743 5.131 8.017 9.791 8.017.658 0 1.326-.065 1.996-.201 5.413-1.096 8.912-6.373 7.816-11.786l-16.541-81.682c-3.416-17.117-17.61-29.915-34.626-31.889v-50.274c0-5.523-4.477-10-10-10h-60c-5.523 0-10 4.477-10 10v50.274c-8.619 1-16.51 4.777-22.647 10.487l-13.773-96.411c-2.487-17.456-16.255-31.276-33.58-33.888v-62.462c0-5.523-4.477-10-10-10h-120c-5.523 0-10 4.477-10 10v62.469c-17.119 2.638-31.073 16.317-33.579 33.874zm313.199-21.676v40h-40v-40zm-99.205 76.272 7.03 49.211-200.244-107.816 6.024-42.189zm34.415 240.898c1.296 9.096-3.631 17.629-11.756 21.151l-242.995-130.835 6.027-42.187 245.947 132.431zm-50.826 22.83h-154.12l77.057-41.493zm-206.938-111.422 45.504 24.5-53.087 28.584zm12.053-84.372 6.026-42.179 226.362 121.886 7.03 49.21zm9.039-63.271 6.026-42.179 206.777 111.334 7.031 49.216zm198.742-29.271-53.626-28.875 45.964-24.752zm-232.49 265.509 1.558-10.903 77.696-41.835 42.185 22.714-98.15 52.851h-3.489c-12.172 0-21.519-10.789-19.8-22.827zm218.991-360 2.824 19.77-64.043 34.488-42.18-22.712 89.044-47.955c7.498 2.124 13.23 8.519 14.355 16.409zm-33.781-89.173v52h-100v-52zm-113.98 72h92.646l-69.376 37.362-42.474-22.871c2.431-8.421 10.243-14.491 19.204-14.491z"/><circle cx="451.703" cy="351.999" r="10"/></g></g></svg>