<?xml version="1.0" encoding="iso-8859-1"?>
<!-- Generator: Adobe Illustrator 19.0.0, SVG Export Plug-In . SVG Version: 6.00 Build 0)  -->
<svg version="1.1" id="Capa_1" xmlns="http://www.w3.org/2000/svg" xmlns:xlink="http://www.w3.org/1999/xlink" x="0px" y="0px"
	 viewBox="0 0 512 512" style="enable-background:new 0 0 512 512;" xml:space="preserve">
<path style="fill:#FDE21B;" d="M440.873,488.096H108.633v-30.037h358.563v3.715C467.195,476.31,455.41,488.096,440.873,488.096z"/>
<g>
	<path style="fill:#FFEC76;" d="M439.036,458.059v3.715c0,14.538-11.785,26.322-26.322,26.322h28.159
		c14.538,0,26.322-11.785,26.322-26.322v-3.715H439.036z"/>
	<path style="fill:#FFEC76;" d="M112.387,458.059v3.715c0,14.538-11.785,26.322-26.322,26.322h28.159
		c14.538,0,26.322-11.785,26.322-26.322v-3.715H112.387z"/>
</g>
<rect x="63.578" y="484.341" style="fill:#FDE21B;" width="371.764" height="27.659"/>
<rect x="29.786" y="242.166" style="fill:#EBC91A;" width="279.711" height="86.355"/>
<path style="fill:#FDE21B;" d="M429.65,386.221v-59.573c0-16.589-13.447-30.037-30.037-30.037H61.7l30.037,22.527l1.877,82.601
	h337.913L429.65,386.221z"/>
<path style="fill:#FFEC76;" d="M429.65,386.221v-59.573c0-16.589-13.447-30.037-30.037-30.037h-33.791
	c16.589,0,30.037,13.447,30.037,30.037v59.573l1.877,15.519h33.791L429.65,386.221z"/>
<path style="fill:#FDE21B;" d="M129.283,384.845h336.035c20.736,0,37.546,16.81,37.546,37.546c0,20.736-16.81,37.546-37.546,37.546
	H129.283"/>
<g>
	<path style="fill:#FFEC76;" d="M465.318,384.845h-48.81c20.736,0,37.546,16.81,37.546,37.546c0,20.736-16.81,37.546-37.546,37.546
		h48.81c20.736,0,37.546-16.81,37.546-37.546C502.864,401.654,486.054,384.845,465.318,384.845z"/>
	<path style="fill:#FFEC76;" d="M179.97,384.845h-48.81c20.736,0,37.546,16.81,37.546,37.546c0,20.736-16.81,37.546-37.546,37.546
		h48.81c20.736,0,37.546-16.81,37.546-37.546C217.516,401.654,200.706,384.845,179.97,384.845z"/>
	<path style="fill:#FFEC76;" d="M125.528,386.221v-59.573c0-16.589-13.447-30.037-30.037-30.037H61.7
		c16.589,0,30.037,13.447,30.037,30.037v59.573l1.877,15.519h33.791L125.528,386.221z"/>
</g>
<g>
	<circle style="fill:#E3F0FB;" cx="61.695" cy="326.649" r="30.037"/>
	<circle style="fill:#E3F0FB;" cx="129.278" cy="422.386" r="37.546"/>
	<circle style="fill:#E3F0FB;" cx="87.977" cy="467.441" r="22.528"/>
</g>
<path style="fill:#FDE21B;" d="M84.228,7.509h225.275l0,0c29.03,0,52.564,23.534,52.564,52.564v150.183
	c0,29.03-23.534,52.564-52.564,52.564l0,0H84.228"/>
<path style="fill:#FFEC76;" d="M309.503,7.509L309.503,7.509h-34.254c29.03,0,52.564,23.534,52.564,52.564v150.183
	c0,29.03-23.534,52.564-52.564,52.564h34.254l0,0c29.03,0,52.564-23.534,52.564-52.564V60.073
	C362.067,31.043,338.533,7.509,309.503,7.509z"/>
<path style="fill:#EBC91A;" d="M33.32,46.932C39.155,24.261,59.735,7.509,84.228,7.509l0,0c29.03,0,52.564,23.534,52.564,52.564
	v150.183c0,29.03-23.534,52.564-52.564,52.564l0,0c-23.12,0-42.753-14.926-49.79-35.669"/>
<path style="fill:#FFEC76;" d="M120.359,7.509L120.359,7.509H86.105c29.03,0,52.564,23.534,52.564,52.564v150.183
	c0,29.03-23.534,52.564-52.564,52.564h34.254l0,0c29.03,0,52.564-23.534,52.564-52.564V60.073
	C172.923,31.043,149.389,7.509,120.359,7.509z"/>
<g>
	<path style="fill:#AFC4D9;" d="M24.154,45.055h60.073c8.294,0,15.018,6.724,15.018,15.018v150.183
		c0,8.294-6.724,15.018-15.018,15.018l0,0H24.154"/>
	<path style="fill:#AFC4D9;" d="M356.435,45.055h28.159c8.294,0,15.018,6.724,15.018,15.018v150.183
		c0,8.294-6.724,15.018-15.018,15.018l0,0h-28.159"/>
</g>
<path style="fill:#E3F0FB;" d="M24.154,45.055L24.154,45.055c8.294,0,15.018,6.724,15.018,15.018v150.183
	c0,8.294-6.724,15.018-15.018,15.018l0,0c-8.294,0-15.018-6.724-15.018-15.018V60.073C9.136,51.779,15.86,45.055,24.154,45.055z"/>
<g>
	<rect x="61.695" y="69.455" style="fill:#FFFFFF;" width="15.018" height="15.018"/>
	<rect x="61.695" y="129.528" style="fill:#FFFFFF;" width="15.018" height="15.018"/>
</g>
<rect x="54.186" y="319.14" width="15.018" height="15.018"/>
<path d="M510.373,422.391c0-24.843-20.212-45.055-45.055-45.055h-28.159v-50.687c0-20.703-16.843-37.546-37.546-37.546h-82.601
	v-19.259c21.884-2.743,40.137-17.292,48.165-37.06h19.418c12.421,0,22.527-10.105,22.527-22.528V60.073
	c0-12.422-10.106-22.528-22.527-22.528h-19.418C356.246,15.554,334.663,0,309.503,0H84.228C59.473,0,37.576,15.097,28.523,37.546
	h-4.368c-12.421,0-22.528,10.105-22.528,22.528v150.183c0,12.422,10.106,22.528,22.528,22.528v93.865
	c0,20.703,16.843,37.546,37.546,37.546c8.446,0,16.248-2.804,22.528-7.53v69.481h0.168c0.325,3.928,1.152,7.714,2.425,11.293
	c-16.026,0.614-28.875,13.835-28.875,30.008V512h15.018v-18.559c4.421,2.565,9.55,4.041,15.018,4.041h341.267V512h15.018v-14.518
	h1.124c16.291,0,29.594-13.035,30.026-29.223l0.424-2.068C495.624,461.439,510.373,443.611,510.373,422.391z M422.14,326.649v50.687
	H129.283c-11.531,0-22.059,4.359-30.037,11.509v-62.196c0-8.446-2.804-16.248-7.53-22.528h307.897
	C412.034,304.121,422.14,314.227,422.14,326.649z M159.319,422.391c0,16.562-13.474,30.037-30.037,30.037
	s-30.037-13.474-30.037-30.037c0-16.562,13.474-30.037,30.037-30.037S159.319,405.828,159.319,422.391z M61.7,289.103
	c-8.446,0-16.248,2.804-22.528,7.53v-46.619c11.169,12.647,27.432,20.316,45.055,20.316h217.766v18.773H61.7z M45.39,52.564h38.837
	c4.141,0,7.509,3.368,7.509,7.509v150.183c0,4.141-3.368,7.509-7.509,7.509H45.39c0.834-2.35,1.292-4.877,1.292-7.509V60.073
	C46.682,57.441,46.223,54.914,45.39,52.564z M384.595,52.564c4.141,0,7.509,3.368,7.509,7.509v150.183
	c0,4.141-3.368,7.509-7.509,7.509h-15.504c0.308-2.462,0.486-4.964,0.486-7.509V60.073c0-2.545-0.177-5.047-0.486-7.509H384.595z
	 M309.503,15.018c24.843,0,45.055,20.212,45.055,45.055v150.183c0,23.852-18.634,43.424-42.108,44.948
	c13.128-11.368,21.458-28.137,21.458-46.825v-93.865h-15.018v93.865c0,25.879-21.054,46.932-46.932,46.932H123.899
	c12.496-11.016,20.402-27.125,20.402-45.055V60.073c0-17.82-7.807-33.843-20.171-44.855c23.901,2.149,42.698,22.281,42.698,46.732
	v93.865h15.018V61.951c0-18.747-8.381-35.562-21.581-46.932H309.503z M84.228,15.018c24.843,0,45.055,20.212,45.055,45.055v150.183
	c0,24.843-20.212,45.055-45.055,45.055c-16.33,0-31.106-8.774-39.038-22.527h39.038c12.421,0,22.528-10.105,22.528-22.528V60.073
	c0-12.422-10.106-22.528-22.528-22.528H45.193C53.083,23.867,67.815,15.018,84.228,15.018z M16.645,210.257V60.073
	c0-4.141,3.368-7.509,7.509-7.509s7.509,3.368,7.509,7.509v150.183c0,4.141-3.368,7.509-7.509,7.509S16.645,214.398,16.645,210.257z
	 M61.7,349.176c-12.421,0-22.528-10.105-22.528-22.527c0-12.422,10.106-22.528,22.528-22.528s22.528,10.105,22.528,22.528
	C84.228,339.071,74.121,349.176,61.7,349.176z M72.964,467.446c0-8.281,6.737-15.018,15.018-15.018s15.018,6.737,15.018,15.018
	c0,8.281-6.737,15.018-15.018,15.018S72.964,475.727,72.964,467.446z M445.392,482.464H113.978c2.565-4.421,4.041-9.55,4.041-15.018
	c0-0.482-0.014-0.96-0.036-1.436c3.612,0.936,7.399,1.436,11.3,1.436H460.41C460.41,475.727,453.673,482.464,445.392,482.464z
	 M465.318,452.427H162.829c7.151-7.978,11.509-18.506,11.509-30.037c0-11.531-4.359-22.059-11.509-30.037h302.489
	c16.562,0,30.037,13.474,30.037,30.037C495.355,438.953,481.88,452.427,465.318,452.427z"/>
<rect x="121.769" y="414.876" width="15.018" height="15.018"/>
<rect x="166.824" y="170.829" width="15.018" height="15.018"/>
<rect x="318.889" y="84.473" width="15.018" height="15.018"/>
<rect x="129.278" y="317.257" width="105.128" height="15.018"/>
<rect x="249.424" y="317.257" width="45.055" height="15.018"/>
<rect x="309.498" y="317.257" width="13.136" height="15.018"/>
<rect x="196.86" y="407.367" width="127.656" height="15.018"/>
<rect x="339.534" y="407.367" width="37.546" height="15.018"/>
<rect x="392.099" y="407.367" width="15.018" height="15.018"/>
<rect x="61.695" y="99.491" width="15.018" height="15.018"/>
<rect x="61.695" y="159.565" width="15.018" height="15.018"/>
<rect x="61.695" y="189.601" style="fill:#FFFFFF;" width="15.018" height="15.018"/>
<g>
</g>
<g>
</g>
<g>
</g>
<g>
</g>
<g>
</g>
<g>
</g>
<g>
</g>
<g>
</g>
<g>
</g>
<g>
</g>
<g>
</g>
<g>
</g>
<g>
</g>
<g>
</g>
<g>
</g>
</svg>
